<svg width="53" height="53" viewBox="0 0 53 53" fill="none" xmlns="http://www.w3.org/2000/svg">
<path d="M8.83337 8.83325H13.8968C14.6468 8.83325 15.0217 8.83325 15.293 9.04505C15.5643 9.25684 15.6552 9.62062 15.8371 10.3482L16.9092 14.6367C17.273 16.0918 17.4549 16.8194 17.9974 17.243C18.54 17.6666 19.2899 17.6666 20.7898 17.6666H22.0834" stroke="#0075FF" stroke-width="3" stroke-linecap="round"/>
<path d="M39.75 37.5417H16.0249C14.7586 37.5417 14.1255 37.5417 13.8262 37.1265C13.5269 36.7112 13.7271 36.1105 14.1275 34.9093L14.5466 33.6518C14.9866 32.3318 15.2067 31.6718 15.7304 31.2943C16.2542 30.9167 16.9499 30.9167 18.3414 30.9167H30.9167" stroke="#0075FF" stroke-width="3" stroke-linecap="round" stroke-linejoin="round"/>
<path d="M36.3056 30.9167H19.361C18.3833 30.9167 17.5489 30.2099 17.3882 29.2455L15.7495 19.4133C15.5971 18.499 16.3022 17.6667 17.2291 17.6667H42.5487C43.2921 17.6667 43.7756 18.4491 43.4431 19.114L38.0945 29.8112C37.7557 30.4887 37.0632 30.9167 36.3056 30.9167Z" stroke="#0075FF" stroke-width="3" stroke-linecap="round"/>
<circle cx="37.5417" cy="44.1666" r="2.20833" fill="#0075FF"/>
<circle cx="19.875" cy="44.1666" r="2.20833" fill="#0075FF"/>
</svg>
